<mxfile host="app.diagrams.net" modified="2023-04-06T14:20:07.942Z" agent="Mozilla/5.0 (Windows NT 10.0; Win64; x64) AppleWebKit/537.36 (KHTML, like Gecko) Chrome/111.0.0.0 Safari/537.36" etag="Zs5okI5yDSMjXaND9TmE" version="21.1.4" type="device">
  <diagram name="Page-1" id="xeEq-D-c1Wmc7VSi1az2">
    <mxGraphModel dx="1615" dy="894" grid="1" gridSize="10" guides="1" tooltips="1" connect="1" arrows="1" fold="1" page="1" pageScale="1" pageWidth="827" pageHeight="1169" math="0" shadow="0">
      <root>
        <mxCell id="0" />
        <mxCell id="1" parent="0" />
        <mxCell id="8KfASOLE3oYkqm73hNKv-1" value="" style="rounded=1;whiteSpace=wrap;html=1;fillColor=#FFE599;" vertex="1" parent="1">
          <mxGeometry x="120" y="130" width="130" height="80" as="geometry" />
        </mxCell>
        <mxCell id="8KfASOLE3oYkqm73hNKv-2" value="&lt;font style=&quot;font-size: 24px;&quot;&gt;Detector&lt;/font&gt;" style="text;html=1;strokeColor=none;fillColor=none;align=center;verticalAlign=middle;whiteSpace=wrap;rounded=0;" vertex="1" parent="1">
          <mxGeometry x="140" y="147.5" width="90" height="45" as="geometry" />
        </mxCell>
        <mxCell id="8KfASOLE3oYkqm73hNKv-4" value="&lt;font style=&quot;font-size: 18px;&quot;&gt;2D detections&lt;/font&gt;" style="text;html=1;strokeColor=none;fillColor=none;align=center;verticalAlign=middle;whiteSpace=wrap;rounded=0;" vertex="1" parent="1">
          <mxGeometry x="260" y="200" width="120" height="30" as="geometry" />
        </mxCell>
        <mxCell id="8KfASOLE3oYkqm73hNKv-8" value="&lt;font style=&quot;font-size: 18px;&quot;&gt;3D detections&lt;/font&gt;" style="text;html=1;strokeColor=none;fillColor=none;align=center;verticalAlign=middle;whiteSpace=wrap;rounded=0;" vertex="1" parent="1">
          <mxGeometry x="250" y="120" width="140" height="30" as="geometry" />
        </mxCell>
        <mxCell id="8KfASOLE3oYkqm73hNKv-12" value="" style="endArrow=classic;html=1;rounded=0;entryX=0;entryY=0.5;entryDx=0;entryDy=0;" edge="1" parent="1" target="8KfASOLE3oYkqm73hNKv-1">
          <mxGeometry width="50" height="50" relative="1" as="geometry">
            <mxPoint x="40" y="170" as="sourcePoint" />
            <mxPoint x="320" y="290" as="targetPoint" />
          </mxGeometry>
        </mxCell>
        <mxCell id="8KfASOLE3oYkqm73hNKv-13" value="&lt;font style=&quot;font-size: 24px;&quot;&gt;Input&lt;/font&gt;" style="text;html=1;strokeColor=none;fillColor=none;align=center;verticalAlign=middle;whiteSpace=wrap;rounded=0;" vertex="1" parent="1">
          <mxGeometry x="20" y="130" width="90" height="45" as="geometry" />
        </mxCell>
        <mxCell id="8KfASOLE3oYkqm73hNKv-15" value="" style="rounded=1;whiteSpace=wrap;html=1;fillColor=#99FF33;" vertex="1" parent="1">
          <mxGeometry x="420" y="130" width="120" height="80" as="geometry" />
        </mxCell>
        <mxCell id="8KfASOLE3oYkqm73hNKv-16" value="&lt;font style=&quot;font-size: 24px;&quot;&gt;Fusion&lt;/font&gt;" style="text;html=1;strokeColor=none;fillColor=none;align=center;verticalAlign=middle;whiteSpace=wrap;rounded=0;" vertex="1" parent="1">
          <mxGeometry x="435" y="147.5" width="90" height="45" as="geometry" />
        </mxCell>
        <mxCell id="8KfASOLE3oYkqm73hNKv-7" value="" style="endArrow=classic;html=1;rounded=0;exitX=1;exitY=0.75;exitDx=0;exitDy=0;entryX=0;entryY=0.75;entryDx=0;entryDy=0;" edge="1" parent="1" source="8KfASOLE3oYkqm73hNKv-1" target="8KfASOLE3oYkqm73hNKv-15">
          <mxGeometry width="50" height="50" relative="1" as="geometry">
            <mxPoint x="400" y="400" as="sourcePoint" />
            <mxPoint x="390" y="190" as="targetPoint" />
          </mxGeometry>
        </mxCell>
        <mxCell id="8KfASOLE3oYkqm73hNKv-3" value="" style="endArrow=classic;html=1;rounded=0;exitX=1;exitY=0.25;exitDx=0;exitDy=0;entryX=0;entryY=0.25;entryDx=0;entryDy=0;" edge="1" parent="1" source="8KfASOLE3oYkqm73hNKv-1" target="8KfASOLE3oYkqm73hNKv-15">
          <mxGeometry width="50" height="50" relative="1" as="geometry">
            <mxPoint x="400" y="410" as="sourcePoint" />
            <mxPoint x="390" y="150" as="targetPoint" />
          </mxGeometry>
        </mxCell>
        <mxCell id="8KfASOLE3oYkqm73hNKv-17" value="" style="endArrow=classic;html=1;rounded=0;exitX=1;exitY=0.5;exitDx=0;exitDy=0;" edge="1" parent="1" source="8KfASOLE3oYkqm73hNKv-15">
          <mxGeometry width="50" height="50" relative="1" as="geometry">
            <mxPoint x="440" y="220" as="sourcePoint" />
            <mxPoint x="590" y="170" as="targetPoint" />
          </mxGeometry>
        </mxCell>
        <mxCell id="8KfASOLE3oYkqm73hNKv-20" value="" style="rounded=1;whiteSpace=wrap;html=1;fillColor=#99FF33;" vertex="1" parent="1">
          <mxGeometry x="590" y="130" width="150" height="80" as="geometry" />
        </mxCell>
        <mxCell id="8KfASOLE3oYkqm73hNKv-21" value="&lt;font style=&quot;font-size: 24px;&quot;&gt;Data association&lt;/font&gt;" style="text;html=1;strokeColor=none;fillColor=none;align=center;verticalAlign=middle;whiteSpace=wrap;rounded=0;" vertex="1" parent="1">
          <mxGeometry x="607.5" y="138.75" width="115" height="62.5" as="geometry" />
        </mxCell>
        <mxCell id="8KfASOLE3oYkqm73hNKv-22" value="" style="triangle;whiteSpace=wrap;html=1;fillColor=#99CCFF;" vertex="1" parent="1">
          <mxGeometry x="820" y="150" width="60" height="80" as="geometry" />
        </mxCell>
        <mxCell id="8KfASOLE3oYkqm73hNKv-23" value="" style="endArrow=classic;html=1;rounded=0;exitX=1;exitY=0.5;exitDx=0;exitDy=0;entryX=0;entryY=0.25;entryDx=0;entryDy=0;" edge="1" parent="1" source="8KfASOLE3oYkqm73hNKv-20" target="8KfASOLE3oYkqm73hNKv-22">
          <mxGeometry width="50" height="50" relative="1" as="geometry">
            <mxPoint x="530" y="210" as="sourcePoint" />
            <mxPoint x="580" y="160" as="targetPoint" />
          </mxGeometry>
        </mxCell>
        <mxCell id="8KfASOLE3oYkqm73hNKv-24" value="" style="endArrow=classic;html=1;rounded=0;entryX=0;entryY=0.75;entryDx=0;entryDy=0;" edge="1" parent="1" target="8KfASOLE3oYkqm73hNKv-22">
          <mxGeometry width="50" height="50" relative="1" as="geometry">
            <mxPoint x="760" y="210" as="sourcePoint" />
            <mxPoint x="580" y="160" as="targetPoint" />
          </mxGeometry>
        </mxCell>
        <mxCell id="8KfASOLE3oYkqm73hNKv-25" value="" style="endArrow=none;html=1;rounded=0;" edge="1" parent="1">
          <mxGeometry width="50" height="50" relative="1" as="geometry">
            <mxPoint x="760" y="290" as="sourcePoint" />
            <mxPoint x="760" y="210" as="targetPoint" />
          </mxGeometry>
        </mxCell>
        <mxCell id="8KfASOLE3oYkqm73hNKv-30" value="" style="endArrow=none;html=1;rounded=0;" edge="1" parent="1" source="8KfASOLE3oYkqm73hNKv-31">
          <mxGeometry width="50" height="50" relative="1" as="geometry">
            <mxPoint x="390" y="290" as="sourcePoint" />
            <mxPoint x="390" y="190" as="targetPoint" />
          </mxGeometry>
        </mxCell>
        <mxCell id="8KfASOLE3oYkqm73hNKv-33" value="" style="endArrow=none;html=1;rounded=0;" edge="1" parent="1" target="8KfASOLE3oYkqm73hNKv-31">
          <mxGeometry width="50" height="50" relative="1" as="geometry">
            <mxPoint x="390" y="270" as="sourcePoint" />
            <mxPoint x="390" y="190" as="targetPoint" />
          </mxGeometry>
        </mxCell>
        <mxCell id="8KfASOLE3oYkqm73hNKv-31" value="" style="shape=waypoint;sketch=0;fillStyle=solid;size=6;pointerEvents=1;points=[];fillColor=none;resizable=0;rotatable=0;perimeter=centerPerimeter;snapToPoint=1;" vertex="1" parent="1">
          <mxGeometry x="380" y="181.25" width="20" height="20" as="geometry" />
        </mxCell>
        <mxCell id="8KfASOLE3oYkqm73hNKv-34" value="" style="rounded=1;whiteSpace=wrap;html=1;fillColor=#99CCFF;" vertex="1" parent="1">
          <mxGeometry x="537" y="250" width="160" height="80" as="geometry" />
        </mxCell>
        <mxCell id="8KfASOLE3oYkqm73hNKv-35" value="&lt;span style=&quot;font-size: 24px;&quot;&gt;CNN&lt;/span&gt;" style="text;html=1;strokeColor=none;fillColor=none;align=center;verticalAlign=middle;whiteSpace=wrap;rounded=0;" vertex="1" parent="1">
          <mxGeometry x="459.5" y="240" width="315" height="102.5" as="geometry" />
        </mxCell>
        <mxCell id="8KfASOLE3oYkqm73hNKv-36" value="" style="endArrow=none;html=1;rounded=0;exitX=1;exitY=0.5;exitDx=0;exitDy=0;" edge="1" parent="1" source="8KfASOLE3oYkqm73hNKv-34">
          <mxGeometry width="50" height="50" relative="1" as="geometry">
            <mxPoint x="620" y="180" as="sourcePoint" />
            <mxPoint x="760" y="290" as="targetPoint" />
          </mxGeometry>
        </mxCell>
        <mxCell id="8KfASOLE3oYkqm73hNKv-37" value="" style="endArrow=classic;html=1;rounded=0;entryX=0;entryY=0.25;entryDx=0;entryDy=0;" edge="1" parent="1" target="8KfASOLE3oYkqm73hNKv-34">
          <mxGeometry width="50" height="50" relative="1" as="geometry">
            <mxPoint x="390" y="270" as="sourcePoint" />
            <mxPoint x="670" y="130" as="targetPoint" />
          </mxGeometry>
        </mxCell>
        <mxCell id="8KfASOLE3oYkqm73hNKv-38" value="" style="rounded=1;whiteSpace=wrap;html=1;fillColor=#99FF33;" vertex="1" parent="1">
          <mxGeometry x="930" y="148.75" width="210" height="82.5" as="geometry" />
        </mxCell>
        <mxCell id="8KfASOLE3oYkqm73hNKv-39" value="&lt;font style=&quot;font-size: 24px;&quot;&gt;Greedy algorithm re-identification&lt;/font&gt;" style="text;html=1;strokeColor=none;fillColor=none;align=center;verticalAlign=middle;whiteSpace=wrap;rounded=0;" vertex="1" parent="1">
          <mxGeometry x="940" y="130" width="190" height="120" as="geometry" />
        </mxCell>
        <mxCell id="8KfASOLE3oYkqm73hNKv-41" value="&lt;font style=&quot;font-size: 24px;&quot;&gt;Tracklets&lt;/font&gt;" style="text;html=1;strokeColor=none;fillColor=none;align=center;verticalAlign=middle;whiteSpace=wrap;rounded=0;" vertex="1" parent="1">
          <mxGeometry x="1210" y="147.5" width="90" height="45" as="geometry" />
        </mxCell>
        <mxCell id="8KfASOLE3oYkqm73hNKv-42" value="" style="endArrow=none;html=1;rounded=0;entryX=0.25;entryY=0.525;entryDx=0;entryDy=0;entryPerimeter=0;" edge="1" parent="1" target="8KfASOLE3oYkqm73hNKv-43">
          <mxGeometry width="50" height="50" relative="1" as="geometry">
            <mxPoint x="1180" y="350" as="sourcePoint" />
            <mxPoint x="1140" y="190" as="targetPoint" />
          </mxGeometry>
        </mxCell>
        <mxCell id="8KfASOLE3oYkqm73hNKv-45" value="" style="endArrow=none;html=1;rounded=0;" edge="1" parent="1">
          <mxGeometry width="50" height="50" relative="1" as="geometry">
            <mxPoint x="490" y="350" as="sourcePoint" />
            <mxPoint x="1180" y="350" as="targetPoint" />
          </mxGeometry>
        </mxCell>
        <mxCell id="8KfASOLE3oYkqm73hNKv-46" value="" style="endArrow=none;html=1;rounded=0;" edge="1" parent="1">
          <mxGeometry width="50" height="50" relative="1" as="geometry">
            <mxPoint x="490" y="350" as="sourcePoint" />
            <mxPoint x="490" y="310" as="targetPoint" />
          </mxGeometry>
        </mxCell>
        <mxCell id="8KfASOLE3oYkqm73hNKv-47" value="" style="endArrow=classic;html=1;rounded=0;entryX=0;entryY=0.75;entryDx=0;entryDy=0;" edge="1" parent="1" target="8KfASOLE3oYkqm73hNKv-34">
          <mxGeometry width="50" height="50" relative="1" as="geometry">
            <mxPoint x="490" y="310" as="sourcePoint" />
            <mxPoint x="890" y="220" as="targetPoint" />
          </mxGeometry>
        </mxCell>
        <mxCell id="8KfASOLE3oYkqm73hNKv-48" value="" style="endArrow=classic;html=1;rounded=0;exitX=1;exitY=0.5;exitDx=0;exitDy=0;entryX=0;entryY=0.5;entryDx=0;entryDy=0;" edge="1" parent="1" source="8KfASOLE3oYkqm73hNKv-22" target="8KfASOLE3oYkqm73hNKv-38">
          <mxGeometry width="50" height="50" relative="1" as="geometry">
            <mxPoint x="790" y="270" as="sourcePoint" />
            <mxPoint x="880" y="190" as="targetPoint" />
          </mxGeometry>
        </mxCell>
        <mxCell id="8KfASOLE3oYkqm73hNKv-50" value="" style="endArrow=classic;html=1;rounded=0;" edge="1" parent="1">
          <mxGeometry width="50" height="50" relative="1" as="geometry">
            <mxPoint x="1140" y="190" as="sourcePoint" />
            <mxPoint x="1300" y="190" as="targetPoint" />
          </mxGeometry>
        </mxCell>
        <mxCell id="8KfASOLE3oYkqm73hNKv-43" value="" style="shape=waypoint;sketch=0;fillStyle=solid;size=6;pointerEvents=1;points=[];fillColor=none;resizable=0;rotatable=0;perimeter=centerPerimeter;snapToPoint=1;" vertex="1" parent="1">
          <mxGeometry x="1170" y="180" width="20" height="20" as="geometry" />
        </mxCell>
        <mxCell id="8KfASOLE3oYkqm73hNKv-52" value="&lt;span style=&quot;font-size: 24px;&quot;&gt;A1&lt;/span&gt;" style="text;html=1;strokeColor=none;fillColor=none;align=center;verticalAlign=middle;whiteSpace=wrap;rounded=0;" vertex="1" parent="1">
          <mxGeometry x="750" y="122.5" width="60" height="57.5" as="geometry" />
        </mxCell>
        <mxCell id="8KfASOLE3oYkqm73hNKv-53" value="&lt;span style=&quot;font-size: 24px;&quot;&gt;A2&lt;/span&gt;" style="text;html=1;strokeColor=none;fillColor=none;align=center;verticalAlign=middle;whiteSpace=wrap;rounded=0;" vertex="1" parent="1">
          <mxGeometry x="700" y="240" width="60" height="57.5" as="geometry" />
        </mxCell>
        <mxCell id="8KfASOLE3oYkqm73hNKv-54" value="&lt;span style=&quot;font-size: 24px;&quot;&gt;A&lt;/span&gt;" style="text;html=1;strokeColor=none;fillColor=none;align=center;verticalAlign=middle;whiteSpace=wrap;rounded=0;" vertex="1" parent="1">
          <mxGeometry x="870" y="143.75" width="60" height="57.5" as="geometry" />
        </mxCell>
        <mxCell id="8KfASOLE3oYkqm73hNKv-55" value="" style="rounded=1;whiteSpace=wrap;html=1;" vertex="1" parent="1">
          <mxGeometry x="35" y="297.5" width="400" height="250" as="geometry" />
        </mxCell>
        <mxCell id="8KfASOLE3oYkqm73hNKv-26" value="" style="rounded=1;whiteSpace=wrap;html=1;fillColor=#99FF33;" vertex="1" parent="1">
          <mxGeometry x="255" y="347.5" width="150" height="80" as="geometry" />
        </mxCell>
        <mxCell id="8KfASOLE3oYkqm73hNKv-10" value="&lt;font style=&quot;font-size: 24px;&quot;&gt;EagerMOT&lt;/font&gt;" style="text;html=1;strokeColor=none;fillColor=none;align=center;verticalAlign=middle;whiteSpace=wrap;rounded=0;" vertex="1" parent="1">
          <mxGeometry x="265" y="365" width="130" height="45" as="geometry" />
        </mxCell>
        <mxCell id="8KfASOLE3oYkqm73hNKv-27" value="" style="rounded=1;whiteSpace=wrap;html=1;fillColor=#99CCFF;" vertex="1" parent="1">
          <mxGeometry x="55" y="347.5" width="160" height="80" as="geometry" />
        </mxCell>
        <mxCell id="8KfASOLE3oYkqm73hNKv-28" value="&lt;font style=&quot;font-size: 24px;&quot;&gt;Proposed contribution&lt;/font&gt;" style="text;html=1;strokeColor=none;fillColor=none;align=center;verticalAlign=middle;whiteSpace=wrap;rounded=0;" vertex="1" parent="1">
          <mxGeometry x="90" y="365" width="90" height="45" as="geometry" />
        </mxCell>
        <mxCell id="8KfASOLE3oYkqm73hNKv-56" value="&lt;font style=&quot;font-size: 24px;&quot;&gt;Legend&lt;/font&gt;" style="text;html=1;strokeColor=none;fillColor=none;align=center;verticalAlign=middle;whiteSpace=wrap;rounded=0;" vertex="1" parent="1">
          <mxGeometry x="175" y="297.5" width="120" height="40" as="geometry" />
        </mxCell>
        <mxCell id="8KfASOLE3oYkqm73hNKv-57" value="&lt;span style=&quot;font-size: 24px;&quot;&gt;A1: EagerMOT affinity matrix&lt;br&gt;A2: CNN visual affinity matrix&lt;br&gt;A: Combined affinity matrix&lt;br&gt;&lt;/span&gt;" style="text;html=1;strokeColor=none;fillColor=none;align=center;verticalAlign=middle;whiteSpace=wrap;rounded=0;" vertex="1" parent="1">
          <mxGeometry x="57.5" y="410" width="355" height="160" as="geometry" />
        </mxCell>
        <mxCell id="8KfASOLE3oYkqm73hNKv-62" value="" style="endArrow=none;html=1;rounded=0;entryX=0.342;entryY=0.669;entryDx=0;entryDy=0;entryPerimeter=0;" edge="1" parent="1" target="8KfASOLE3oYkqm73hNKv-43">
          <mxGeometry width="50" height="50" relative="1" as="geometry">
            <mxPoint x="1180" y="100" as="sourcePoint" />
            <mxPoint x="630" y="220" as="targetPoint" />
          </mxGeometry>
        </mxCell>
        <mxCell id="8KfASOLE3oYkqm73hNKv-63" value="" style="endArrow=none;html=1;rounded=0;" edge="1" parent="1">
          <mxGeometry width="50" height="50" relative="1" as="geometry">
            <mxPoint x="570" y="100" as="sourcePoint" />
            <mxPoint x="1180" y="100" as="targetPoint" />
          </mxGeometry>
        </mxCell>
        <mxCell id="8KfASOLE3oYkqm73hNKv-64" value="" style="endArrow=none;html=1;rounded=0;" edge="1" parent="1">
          <mxGeometry width="50" height="50" relative="1" as="geometry">
            <mxPoint x="570" y="150" as="sourcePoint" />
            <mxPoint x="570" y="100" as="targetPoint" />
          </mxGeometry>
        </mxCell>
        <mxCell id="8KfASOLE3oYkqm73hNKv-65" value="" style="endArrow=classic;html=1;rounded=0;entryX=0;entryY=0.25;entryDx=0;entryDy=0;" edge="1" parent="1" target="8KfASOLE3oYkqm73hNKv-20">
          <mxGeometry width="50" height="50" relative="1" as="geometry">
            <mxPoint x="570" y="150" as="sourcePoint" />
            <mxPoint x="660" y="180" as="targetPoint" />
          </mxGeometry>
        </mxCell>
      </root>
    </mxGraphModel>
  </diagram>
</mxfile>
